<?xml version="1.0" standalone="no"?>
<!DOCTYPE svg PUBLIC "-//W3C//DTD SVG 1.1//EN" "http://www.w3.org/Graphics/SVG/1.1/DTD/svg11.dtd" >
<svg xmlns="http://www.w3.org/2000/svg">
<metadata></metadata>
<defs>
<font id="pill_gothic_300mgthin" horiz-adv-x="1036" >
<font-face units-per-em="2048" ascent="1638" descent="-410" />
<missing-glyph horiz-adv-x="446" />
<glyph unicode="&#xdf;" horiz-adv-x="1077" d="M113 928v76h88v219q0 139 62.5 220t207.5 81q35 0 71 -10.5t68 -20.5l-26 -76q-25 10 -55.5 20.5t-57.5 10.5q-104 0 -149.5 -59.5t-45.5 -163.5v-221h656v-72l-244 -344h60q98 0 151 -52.5t53 -175.5v-163q0 -51 -20.5 -90t-54 -67t-75.5 -42t-85 -14q-39 0 -78 10 t-74 29.5t-62.5 50t-41.5 71.5l67 35q25 -59 77 -90t112 -31q63 0 111.5 31t48.5 107v163q0 72 -31 112t-96 40h-156v76l246 340h-564v-928h-75v928h-88z" />
<glyph unicode="&#xfb01;" horiz-adv-x="966" d="M51 928v76h176v249q0 72 20.5 121t57.5 82t86.5 47.5t104.5 14.5q72 0 128 -19.5t97 -44.5q47 -29 84 -65l-51 -72q-35 37 -76 63q-35 23 -82 42.5t-100 19.5q-104 0 -148.5 -51.5t-44.5 -137.5v-249h197v-76h-197v-928h-76v928h-176zM698 0v1004h76v-1004h-76z" />
<glyph unicode="&#xfb02;" horiz-adv-x="1052" d="M51 928v76h176v249q0 72 20.5 121t57.5 82t86.5 47.5t104.5 14.5q33 0 81 -7.5t97 -17.5t92 -24.5t63 -26.5h29v-1442h-78v1382q-27 14 -67.5 25.5t-82.5 19t-79 11.5t-55 4q-104 0 -148.5 -51.5t-44.5 -137.5v-249h197v-76h-199v-928h-76v928h-174z" />
<glyph horiz-adv-x="2048" />
<glyph horiz-adv-x="2048" />
<glyph unicode="&#xd;" horiz-adv-x="446" />
<glyph unicode=" "  horiz-adv-x="446" />
<glyph unicode="&#x09;" horiz-adv-x="446" />
<glyph unicode="&#xa0;" horiz-adv-x="446" />
<glyph unicode="!" horiz-adv-x="466" d="M186 0v174h142v-174h-142zM219 481v912h76v-912h-76z" />
<glyph unicode="&#x22;" horiz-adv-x="528" d="M133 940v453h76v-453h-76zM319 940v453h76v-453h-76z" />
<glyph unicode="#" horiz-adv-x="1247" d="M113 367v77h307l61 406h-329v74h342l57 407h78l-60 -407h226l61 407h76l-60 -407h263v-74h-273l-61 -406h293v-77h-301l-54 -367h-77l51 367h-226l-55 -367h-76l52 367h-295zM498 444h225l61 406h-227z" />
<glyph unicode="$" horiz-adv-x="905" d="M117 223l71 29q23 -57 50.5 -92t61.5 -55.5t75 -27.5t88 -7q135 0 194.5 65.5t59.5 194.5v184l-565 360v173q0 109 25.5 174t66.5 102t93 51.5t105 18.5v204h76v-206q117 -10 177.5 -63.5t95.5 -153.5l-72 -33q-41 111 -101.5 143.5t-140.5 32.5q-41 0 -85 -7t-81 -35 t-60.5 -82t-23.5 -149v-116l566 -359v-239q0 -154 -81 -242t-210 -94v-262h-76v262q-127 10 -199.5 66.5t-109.5 162.5z" />
<glyph unicode="%" horiz-adv-x="1196" d="M154 0l690 1393h92l-686 -1393h-96zM154 987v223q0 109 61 156t145 47q111 0 160 -58.5t49 -144.5v-223q0 -109 -60 -154t-149 -45q-106 0 -156 56.5t-50 142.5zM229 987q0 -68 39 -95.5t92 -27.5q72 0 103 35t31 88v223q0 72 -39 99.5t-95 27.5q-66 0 -98.5 -36.5 t-32.5 -90.5v-223zM629 180v223q0 109 61.5 160t145.5 51q55 0 94 -17t64.5 -46t36.5 -67t11 -81v-223q0 -109 -59 -154.5t-147 -45.5q-109 0 -158 57t-49 143zM705 180q0 -68 38.5 -96.5t92.5 -28.5q72 0 101.5 36t29.5 89v223q0 72 -38 104t-93 32q-66 0 -98.5 -41 t-32.5 -95v-223z" />
<glyph unicode="&#x26;" horiz-adv-x="1167" d="M113 322q0 55 25.5 116.5t66.5 125t94 128t111 125.5l-148 209v158q0 121 58.5 175t146.5 54q117 0 168 -66.5t51 -183.5q0 -61 -15.5 -110t-40 -91t-56 -79t-64.5 -74l328 -461l204 260l58 -43l-211 -276l186 -266l-59 -48l-174 248q-78 -113 -178.5 -178t-210.5 -65 q-70 0 -131.5 21.5t-107.5 63t-73.5 106.5t-27.5 151zM188 319q0 -123 71 -193.5t194 -70.5q53 0 101 20.5t91 53.5t81 74t69 82l-334 471q-57 -53 -106.5 -114.5t-86.5 -120t-58.5 -112t-21.5 -90.5zM336 1049l125 -189q76 74 112.5 143.5t36.5 153.5q0 55 -9 91 t-27.5 55.5t-45 26.5t-61.5 7q-51 0 -78 -18.5t-38 -44t-12 -51t-1 -41.5z" />
<glyph unicode="'" horiz-adv-x="423" d="M174 979v455h76v-455h-76z" />
<glyph unicode="(" horiz-adv-x="632" d="M195 170v756q0 104 18 199.5t54 175t87.5 142t114.5 101.5l41 -61q-109 -66 -174.5 -209.5t-65.5 -347.5v-756q0 -211 65.5 -348t174.5 -205l-41 -66q-63 39 -114.5 101.5t-87.5 142.5t-54 175.5t-18 199.5z" />
<glyph unicode=")" horiz-adv-x="630" d="M123 -379q109 68 173 212t64 362v710q0 205 -64.5 354.5t-172.5 215.5l41 69q66 -39 116 -104.5t84.5 -149.5t53 -182t18.5 -203v-710q0 -104 -18.5 -202.5t-53 -182.5t-85 -150t-115.5 -104z" />
<glyph unicode="*" horiz-adv-x="780" d="M113 1208l22 72l217 -68v222h78v-222l215 68l23 -72l-215 -67l133 -180l-62 -46l-133 181l-135 -181l-61 46l133 180z" />
<glyph unicode="+" horiz-adv-x="985" d="M72 748v75h383v447h75v-447h383v-75h-383v-482h-75v482h-383z" />
<glyph unicode="," horiz-adv-x="327" d="M49 -203q18 27 32.5 50.5t24 51t13.5 60.5t4 76v108h82v-53q0 -70 -7.5 -119t-20.5 -86t-32.5 -65.5t-44.5 -57.5z" />
<glyph unicode="-" horiz-adv-x="583" d="M113 532v76h358v-76h-358z" />
<glyph unicode="." horiz-adv-x="462" d="M154 0v172h155v-172h-155z" />
<glyph unicode="/" horiz-adv-x="626" d="M51 -174l459 1567h78l-459 -1567h-78z" />
<glyph unicode="0" horiz-adv-x="1163" d="M174 342v700q0 86 29.5 156t84 117t129.5 72.5t165 25.5t164.5 -24.5t128 -72.5t83 -117t29.5 -157v-700q0 -88 -29.5 -155.5t-84 -113.5t-128 -69.5t-163.5 -23.5t-165 23.5t-129.5 69.5t-84 113.5t-29.5 155.5zM250 342q0 -141 92 -214t240 -73q145 0 237 72t92 215 v700q0 141 -92 218t-237 77q-147 0 -239.5 -76.5t-92.5 -218.5v-700z" />
<glyph unicode="1" horiz-adv-x="800" d="M143 1317v76h330v-1393h-76v1317h-254z" />
<glyph unicode="2" horiz-adv-x="925" d="M125 1231q66 78 154 133t204 55q156 0 232 -89t76 -230q0 -57 -5.5 -109.5t-31 -104.5t-80 -108.5t-150.5 -122.5q-98 -68 -158.5 -135t-95 -138t-47 -146.5t-12.5 -159.5h612v-76h-688v45q0 96 13.5 182t49 167t100 157t167.5 149q72 51 120 93.5t76.5 87.5t41 97 t12.5 122q0 123 -67.5 183t-170.5 60q-96 0 -163.5 -46t-133.5 -117z" />
<glyph unicode="3" horiz-adv-x="1024" d="M133 276h76q0 -49 27.5 -90t70.5 -69.5t95.5 -45t99.5 -16.5q129 0 210 50.5t81 136.5v225q0 53 -26 94t-67 69.5t-91 44t-99 15.5h-137v76h137q129 0 199.5 60.5t70.5 150.5v143q0 115 -72.5 166t-199.5 51q-63 0 -115.5 -21.5t-90.5 -56t-58.5 -77.5t-20.5 -88h-76 q0 76 32 135t83 100t115.5 62.5t130.5 21.5q100 0 167.5 -24.5t107.5 -65.5t56.5 -93t16.5 -110v-143q0 -68 -19.5 -111t-50 -70.5t-66.5 -44t-69 -28.5q45 -18 84 -39.5t69 -51.5t47 -70t17 -95v-225q0 -74 -31.5 -124t-84 -81t-118 -44t-132.5 -13q-78 0 -145.5 25.5 t-117 67.5t-78 95t-28.5 108z" />
<glyph unicode="4" horiz-adv-x="909" d="M41 442v76l506 875h119v-875h202v-76h-202v-442h-76v442h-549zM127 518h463l6 805h-8z" />
<glyph unicode="5" horiz-adv-x="995" d="M143 301h76q0 -63 23.5 -109.5t61.5 -77t88 -45t104 -14.5q147 0 212.5 59.5t65.5 159.5v248q0 61 -24.5 103.5t-64.5 68t-92 36.5t-110 11h-295l76 652h518v-76h-448l-64 -500h222q180 0 269 -81t89 -214v-248q0 -82 -28.5 -138t-78 -91t-113 -50t-134.5 -15 q-98 0 -166 25.5t-109 70.5t-59.5 103.5t-18.5 121.5z" />
<glyph unicode="6" horiz-adv-x="1024" d="M174 295v827q0 74 29.5 128.5t79 90t112 54t125.5 18.5q55 0 100.5 -13.5t80 -35t59 -48t39.5 -50.5l-54 -52q-41 53 -88 88t-137 35q-70 0 -120 -20.5t-83.5 -52t-50 -69.5t-16.5 -73v-407q53 92 118.5 123.5t151.5 31.5q90 0 155.5 -26.5t108.5 -70.5t64.5 -101.5 t21.5 -118.5v-258q0 -80 -28.5 -138.5t-75.5 -98.5t-110.5 -59t-135.5 -19q-88 0 -153.5 26.5t-108.5 69.5t-63.5 100t-20.5 119zM250 295q0 -61 21.5 -106.5t58.5 -75t86 -44t104 -14.5q70 0 121 19.5t85 52.5t51.5 77t17.5 91v258q0 61 -22.5 106.5t-60.5 75t-87.5 45 t-104.5 15.5q-68 0 -119 -23.5t-84.5 -61.5t-50 -86.5t-16.5 -97.5v-231z" />
<glyph unicode="7" horiz-adv-x="763" d="M20 1317v76h682l-376 -1393h-84l354 1317h-576z" />
<glyph unicode="8" horiz-adv-x="1044" d="M174 279v188q0 92 58.5 158.5t132.5 99.5q-170 90 -170 252v153q0 74 26.5 127.5t70.5 88t103.5 51t124.5 16.5q84 0 144.5 -23.5t101.5 -62.5t60.5 -90t19.5 -107v-153q0 -98 -50.5 -159.5t-115.5 -92.5q92 -43 140 -111.5t48 -146.5v-188q0 -74 -27.5 -129.5 t-74.5 -93.5t-110.5 -57t-135.5 -19q-88 0 -153.5 25.5t-108.5 67.5t-63.5 95t-20.5 111zM250 279q0 -55 21.5 -96.5t58.5 -70t86 -43t104 -14.5q70 0 121 18.5t85 50.5t50.5 72t16.5 83v188q0 55 -20.5 95t-54.5 67.5t-80 41t-97 13.5h-37q-129 0 -191.5 -64.5 t-62.5 -152.5v-188zM270 977q0 -55 18.5 -95t50.5 -65.5t75 -39t90 -17.5h37q111 12 170 72.5t59 144.5v153q0 55 -20.5 95.5t-54 65t-80 35.5t-95.5 11q-125 0 -187.5 -61.5t-62.5 -145.5v-153z" />
<glyph unicode="9" horiz-adv-x="1026" d="M154 834v342q0 72 27.5 126t75.5 91t111.5 55t135.5 18q88 0 152.5 -25.5t107.5 -66.5t63.5 -93t20.5 -105v-887q0 -78 -27.5 -136.5t-75 -96.5t-110 -57t-131.5 -19q-41 0 -87 10t-89 28.5t-80 43t-60 51.5l54 53q27 -25 61.5 -44.5t70.5 -34.5t68.5 -23.5t57.5 -8.5 q139 0 205.5 63.5t66.5 170.5v362q-53 -72 -119.5 -103.5t-148.5 -31.5q-90 0 -155.5 26.5t-108.5 70.5t-64.5 101.5t-21.5 119.5zM229 834q0 -59 21.5 -104.5t59.5 -76t88.5 -46t105.5 -15.5q68 0 119 23.5t83.5 61.5t49 86t16.5 97v316q0 53 -21.5 93t-58.5 67.5t-86 41 t-102 13.5q-70 0 -122 -19.5t-86 -50.5t-50.5 -69t-16.5 -76v-342z" />
<glyph unicode=":" horiz-adv-x="532" d="M195 0v197h143v-197h-143zM195 811v193h143v-193h-143z" />
<glyph unicode=";" horiz-adv-x="825" d="M150 -203q18 27 32.5 50.5t23.5 51t13 60.5t4 76v108h82v-53q0 -70 -7 -119t-20.5 -86t-33 -65.5t-43.5 -57.5zM209 694v199h100v-199h-100z" />
<glyph unicode="&#x3c;" horiz-adv-x="1044" d="M113 489l747 535l35 -63l-651 -469l688 -443l-39 -67z" />
<glyph unicode="=" horiz-adv-x="1140" d="M113 477v76h915v-76h-915zM113 928v76h915v-76h-915z" />
<glyph unicode="&#x3e;" horiz-adv-x="995" d="M113 51l645 441l-608 466l38 66l695 -535l-738 -507z" />
<glyph unicode="?" horiz-adv-x="669" d="M61 1266q53 57 115.5 102t140.5 45q129 0 184.5 -61.5t55.5 -190.5v-164q0 -59 -29.5 -114.5t-68.5 -94.5q-45 -45 -74 -76.5t-45 -65.5t-23.5 -75t-7.5 -102v-74h-80v166q0 82 40 136.5t100 115.5q47 47 77.5 90t34.5 103v137q0 100 -33.5 147t-132.5 47 q-31 0 -59.5 -12t-54 -31.5t-49 -42t-43.5 -43.5zM207 0v174h145v-174h-145z" />
<glyph unicode="@" horiz-adv-x="1406" d="M113 504v24.5t1 52t6 95t13 151.5q16 164 71.5 284t140.5 197.5t193.5 116.5t227.5 39q145 0 244.5 -39t161 -107.5t88 -163.5t26.5 -206q0 -305 -62.5 -457.5t-209.5 -152.5q-66 0 -100.5 32.5t-59.5 80.5q-53 -78 -114.5 -110t-139.5 -32q-61 0 -101 13.5t-63.5 37 t-33 54t-9.5 67.5q0 88 11.5 174t21.5 158q8 72 35.5 132.5t69.5 104.5t95.5 68.5t112.5 24.5q219 0 219 -162q0 -53 -7 -117.5t-13 -111.5q-6 -45 -17.5 -92.5t-15.5 -102.5q0 -72 31 -107.5t78 -35.5q57 0 95 29.5t60.5 94t31.5 165t9 243.5q0 121 -31.5 206t-89 137 t-139.5 76t-184 24q-135 0 -235.5 -45.5t-169 -123t-105.5 -180t-47 -217.5q-8 -90 -12 -148.5t-6.5 -93t-3.5 -51t-1 -22.5q0 -244 117 -350.5t330 -106.5q90 0 187.5 21.5t160.5 62.5l33 -67q-43 -29 -92.5 -47.5t-100.5 -28.5t-99 -13.5t-89 -3.5q-152 0 -252 40 t-159.5 111t-84 168t-24.5 210zM469 498q0 -70 40 -91.5t95 -21.5q76 0 120 28.5t67.5 65.5t31.5 72t11 47q0 -4 7 41t16 106.5t17.5 125t8.5 98.5q0 33 -12.5 52t-34 30.5t-48 15.5t-57.5 4q-61 0 -101 -21.5t-65.5 -57.5t-40 -81t-22.5 -94q-14 -68 -23.5 -148.5 t-9.5 -170.5z" />
<glyph unicode="A" d="M51 0l443 1413h59l432 -1413h-78l-153 494h-465l-158 -494h-80zM309 569h422l-209 701z" />
<glyph unicode="B" horiz-adv-x="1032" d="M195 0v1393h346q84 0 143 -27t97 -71t55.5 -99t17.5 -113v-112q0 -94 -46 -155.5t-99 -90.5q90 -29 139 -106.5t49 -174.5v-133q0 -76 -26.5 -133t-70.5 -97t-100.5 -60.5t-115.5 -20.5h-389zM270 76h314q61 0 106 23.5t74 59.5t43 76.5t14 73.5v133q0 121 -65.5 181.5 t-171.5 60.5h-314v-608zM270 760h297q98 0 154.5 56t56.5 155v112q0 117 -65.5 175.5t-171.5 58.5h-271v-557z" />
<glyph unicode="C" horiz-adv-x="983" d="M133 354v676q0 98 31 170t83 119t124.5 70.5t154.5 23.5q129 0 220.5 -58.5t140.5 -131.5l-60 -56q-57 82 -136 126t-165 44q-84 0 -144 -25.5t-98 -67.5t-56.5 -97t-18.5 -117v-676q0 -82 23.5 -139t65.5 -93t100.5 -51.5t127.5 -15.5q104 0 182 35t130 92l45 -59 q-72 -76 -164 -109.5t-193 -33.5q-109 0 -184.5 29.5t-121.5 79.5t-66.5 118.5t-20.5 146.5z" />
<glyph unicode="D" horiz-adv-x="1087" d="M195 -2v1395h329q104 0 184 -31t134.5 -85t82 -128t27.5 -158v-592q0 -111 -34.5 -187.5t-93 -123.5t-135.5 -68.5t-161 -21.5h-333zM270 74h252q176 0 265.5 89t89.5 236v592q0 88 -31 150.5t-81 101.5t-112.5 56.5t-128.5 17.5h-254v-1243z" />
<glyph unicode="E" horiz-adv-x="911" d="M195 0v1393h561v-76h-486v-563h408v-76h-408v-602h529v-76h-604z" />
<glyph unicode="F" horiz-adv-x="825" d="M195 0v1393h559v-76h-484v-543h408v-76h-408v-698h-75z" />
<glyph unicode="G" horiz-adv-x="1105" d="M133 381v631q0 102 36 178t96.5 125t136 73.5t155.5 24.5q119 0 206 -52t136 -128l-53 -45q-57 78 -134 113.5t-155 35.5q-82 0 -147.5 -26.5t-109.5 -71.5t-67.5 -103.5t-23.5 -123.5v-631q0 -88 28.5 -149.5t78 -100.5t113 -57.5t130.5 -18.5q72 0 121 8.5t84 22.5 t61.5 32.5t51.5 39.5v452h-326v76h401v-557q-53 -55 -152.5 -102t-240.5 -47q-104 0 -184 31.5t-134.5 86t-81 128t-26.5 155.5z" />
<glyph unicode="H" horiz-adv-x="1230" d="M195 0v1393h75v-684h686v684h76v-1393h-76v633h-686v-633h-75z" />
<glyph unicode="I" horiz-adv-x="550" d="M236 0v1393h75v-1393h-75z" />
<glyph unicode="J" horiz-adv-x="870" d="M51 248h76q0 -102 67.5 -147.5t170.5 -45.5q100 0 167.5 44t67.5 149v1145h76v-1145q0 -68 -23.5 -119t-65.5 -84t-99.5 -49t-122.5 -16q-141 0 -227.5 64.5t-86.5 203.5z" />
<glyph unicode="K" horiz-adv-x="1044" d="M195 0v1393h75v-721l615 721h90l-553 -656l612 -737h-98l-567 678l-99 -115v-563h-75z" />
<glyph unicode="L" horiz-adv-x="851" d="M195 0v1393h75v-1317h572v-76h-647z" />
<glyph unicode="M" horiz-adv-x="1394" d="M195 0v1393h92l411 -871l412 871h88v-1393h-76v1239l-401 -860h-49l-402 854v-1233h-75z" />
<glyph unicode="N" horiz-adv-x="1265" d="M195 0v1393h100l700 -1276v1276h76v-1393h-88l-713 1268v-1268h-75z" />
<glyph unicode="O" horiz-adv-x="1153" d="M133 379v631q0 90 33 163.5t91 127t136 83t168 29.5h27q90 0 169 -28.5t137 -82t91 -128t33 -164.5v-631q0 -92 -33 -167t-90 -126t-136 -78.5t-171 -27.5h-25q-94 0 -173 27.5t-136 78.5t-89 125t-32 168zM209 379q0 -76 26.5 -136.5t73.5 -102.5t112.5 -63.5 t141.5 -21.5h25q78 0 142.5 21.5t111.5 63.5t73.5 102.5t26.5 136.5v631q0 72 -28.5 131t-78 103t-113 68.5t-134.5 24.5h-27q-72 0 -136.5 -24.5t-112.5 -67.5t-75.5 -103.5t-27.5 -131.5v-631z" />
<glyph unicode="P" horiz-adv-x="968" d="M195 0v1393h348q68 0 125 -22.5t98 -63.5t64.5 -98.5t23.5 -125.5v-202q0 -68 -23.5 -120t-65.5 -88t-99.5 -55.5t-122.5 -19.5h-273v-598h-75zM270 674h273q100 0 167.5 51t67.5 156v202q0 49 -18.5 92.5t-50 74t-74.5 49t-92 18.5h-273v-643z" />
<glyph unicode="Q" horiz-adv-x="1155" d="M133 379v631q0 90 33 163.5t91 127t136 83t168 29.5h27q90 0 169 -28.5t137 -82t91 -128t33 -164.5v-631q0 -100 -38 -178t-106 -129l39 -60q23 -39 62 -68.5t110 -29.5v-76q-45 0 -78.5 6t-61 21.5t-54.5 42t-55 67.5l-31 52q-92 -47 -217 -47h-25q-94 0 -173 27.5 t-136 78.5t-89 125t-32 168zM209 379q0 -76 26.5 -136.5t73.5 -102.5t112.5 -63.5t141.5 -21.5h25q102 0 178 37l-178 291l61 45l187 -293q49 41 77.5 102.5t28.5 141.5v631q0 72 -28.5 131t-78 103t-113 68.5t-134.5 24.5h-27q-72 0 -136.5 -24.5t-112.5 -67.5 t-75.5 -103.5t-27.5 -131.5v-631z" />
<glyph unicode="R" horiz-adv-x="1052" d="M197 0v1393h417q68 0 124.5 -18.5t97.5 -56.5t64.5 -94.5t23.5 -133.5v-166q0 -143 -77 -208t-198 -75l291 -641h-88l-285 641h-295v-641h-75zM272 717h338q111 0 174.5 47t63.5 160v166q0 109 -63.5 168t-174.5 59h-338v-600z" />
<glyph unicode="S" horiz-adv-x="946" d="M63 227l70 43q41 -100 134 -157.5t204 -57.5q74 0 133.5 12.5t100 43t63.5 81t23 123.5q0 72 -38 125.5t-87.5 94t-98.5 70.5t-71 50q-41 33 -103.5 72t-121 89t-100.5 114.5t-42 148.5q0 166 97.5 250t267.5 84q125 0 219 -58.5t147 -140.5l-63 -55q-20 35 -54 68 t-74 57.5t-85 38.5t-92 14q-137 0 -212 -62.5t-75 -195.5q0 -61 35.5 -113.5t86 -95.5t106.5 -78.5t99 -66.5q37 -27 93.5 -61.5t109.5 -83t92 -113t39 -152.5t-28.5 -152.5t-80.5 -104.5t-126 -59t-162 -19q-131 0 -241.5 64.5t-164.5 182.5z" />
<glyph unicode="T" horiz-adv-x="903" d="M31 1317v76h841v-76h-385v-1317h-75v1317h-381z" />
<glyph unicode="U" horiz-adv-x="1230" d="M195 381v1012h75v-1012q0 -90 29 -152.5t78 -100.5t112.5 -55.5t131.5 -17.5q70 0 131 21.5t107 63.5t72.5 102.5t26.5 138.5v1012h76v-1012q0 -106 -32.5 -183t-90 -125t-132 -70.5t-158.5 -22.5q-111 0 -192 30.5t-133 83.5t-76.5 127t-24.5 160z" />
<glyph unicode="V" horiz-adv-x="1024" d="M51 1393h76l379 -1254l391 1254h76l-430 -1393h-74z" />
<glyph unicode="W" horiz-adv-x="1474" d="M51 1393h80l272 -1250l287 1250h72l282 -1252l279 1252h80l-309 -1393h-99l-270 1229l-276 -1229h-93z" />
<glyph unicode="X" horiz-adv-x="1056" d="M98 0l396 702l-375 691h92l330 -611l340 611h90l-385 -691l385 -702h-90l-340 625l-353 -625h-90z" />
<glyph unicode="Y" horiz-adv-x="1067" d="M51 1393h86l383 -727l389 727h86l-438 -826v-567h-76v567z" />
<glyph unicode="Z" horiz-adv-x="1019" d="M113 0v33l678 1284h-650v76h744v-60l-654 -1257h676v-76h-794z" />
<glyph unicode="[" horiz-adv-x="512" d="M188 -346v1739h211v-76h-131v-1587h125v-76h-205z" />
<glyph unicode="\" horiz-adv-x="641" d="M72 1393h82l415 -1393h-80z" />
<glyph unicode="]" horiz-adv-x="505" d="M113 -250h123v1567h-121v76h202v-1719h-204v76z" />
<glyph unicode="^" horiz-adv-x="690" d="M113 948l239 469l226 -469h-84l-144 289l-149 -289h-88z" />
<glyph unicode="_" horiz-adv-x="909" d="M113 -51h684v-76h-684v76z" />
<glyph unicode="`" horiz-adv-x="432" d="M102 1370l74 51l154 -280l-60 -49z" />
<glyph unicode="a" horiz-adv-x="882" d="M115 219v258l540 111v153q0 113 -44 160t-154 47q-25 0 -62 -9t-76.5 -23.5t-77.5 -33t-65 -36.5l-33 76q25 16 64 33.5t84 33t89 25.5t77 10q147 0 210.5 -69.5t63.5 -213.5v-741h-76v131q-35 -68 -98 -109.5t-156 -41.5q-57 0 -109 15t-92 46t-62.5 76t-22.5 102z M195 219q0 -41 17 -71.5t46 -51t66.5 -31t78.5 -10.5q53 0 98.5 20.5t80 55.5t54 81t19.5 99v199l-460 -94v-197z" />
<glyph unicode="b" horiz-adv-x="964" d="M176 0v1475h76v-611q43 72 116.5 116t161.5 44q145 0 233.5 -84t88.5 -229v-416q0 -147 -89 -231t-233 -84q-86 0 -162.5 38.5t-115.5 124.5v-143h-76zM252 348q0 -59 21.5 -112.5t58.5 -93.5t88 -63.5t110 -23.5q113 0 179.5 62.5t66.5 177.5v416q0 115 -65.5 176 t-180.5 61q-57 0 -107 -24.5t-88 -64.5t-60.5 -93t-22.5 -109v-309z" />
<glyph unicode="c" horiz-adv-x="763" d="M113 295v403q0 70 23.5 129.5t64.5 103.5t99 68.5t128 24.5q78 0 147.5 -39t116.5 -104l-57 -56q-35 53 -91.5 88t-115.5 35q-53 0 -97 -19.5t-76 -53t-49.5 -78.5t-17.5 -99v-403q0 -111 65.5 -175.5t178.5 -64.5q53 0 108.5 23.5t88.5 64.5l53 -59q-20 -25 -50 -44.5 t-65 -32.5t-69.5 -20t-65.5 -7q-147 0 -233 85t-86 230z" />
<glyph unicode="d" horiz-adv-x="935" d="M113 289v428q0 143 89 225t234 82q80 0 154 -37t115 -115v603h75v-1475h-75v100q-47 -66 -122 -93t-147 -27q-145 0 -234 81.5t-89 227.5zM188 289q0 -117 67 -175.5t181 -58.5q55 0 104.5 20.5t85.5 56.5t57.5 85t21.5 105v335q0 55 -20.5 108.5t-56.5 93.5t-85 64.5 t-107 24.5q-111 0 -179.5 -60.5t-68.5 -170.5v-428z" />
<glyph unicode="e" horiz-adv-x="851" d="M113 334v364q0 72 25.5 132.5t69.5 103.5t104.5 66.5t129.5 23.5q141 0 226.5 -89t85.5 -237v-125l-566 -100v-139q0 -129 77 -204t206 -75q55 0 115.5 13.5t124.5 70.5l49 -63q-59 -59 -135 -77.5t-154 -18.5q-80 0 -145.5 25.5t-112.5 72.5t-73.5 112.5t-26.5 143.5z M188 549l490 88l-8 111q-23 98 -74.5 149t-153.5 51q-51 0 -97 -18.5t-81 -52t-55.5 -79.5t-20.5 -100v-149z" />
<glyph unicode="f" horiz-adv-x="479" d="M20 928v76h177v225q0 80 20.5 133t55 84t80.5 44t98 13q47 0 96 -13t76 -24l-21 -67q-31 10 -74 19t-75 9q-96 0 -138.5 -46t-42.5 -152v-225h197v-76h-197v-928h-75v928h-177z" />
<glyph unicode="g" horiz-adv-x="901" d="M113 -209q0 104 46 165.5t150 84.5q-39 18 -62.5 43t-35.5 50.5t-16.5 49t-4.5 41.5q0 45 20.5 79t70.5 63q-66 47 -100 98t-34 131v141q0 68 24 121t66 89t100 55.5t128 19.5q102 0 199 -51l180 63l18 -78l-141 -45q35 -47 47 -91t12 -97v-127q0 -145 -81 -211t-224 -66 q-35 0 -61.5 4.5t-55.5 10.5q-45 -14 -72.5 -40t-27.5 -71q0 -33 13.5 -57.5t33 -40.5t44 -27.5t48.5 -19.5l447 -137v-166q0 -68 -25.5 -116t-69.5 -78t-103.5 -43t-129.5 -13h-76q-72 0 -132 14.5t-103 46t-67.5 82.5t-24.5 123zM188 -209q0 -53 19.5 -89t53.5 -58.5 t80 -32.5t99 -10h72q59 0 107.5 6t82 24.5t50.5 54.5q16 31 16 83v12v110l-369 113q-104 -6 -157.5 -61.5t-53.5 -151.5zM223 596q0 -49 21.5 -87t56.5 -63.5t79 -38t87 -12.5q98 0 168 49.5t70 151.5v135v13q0 103 -61 151q-66 51 -179 51q-111 0 -176.5 -55t-65.5 -160 v-135z" />
<glyph unicode="h" horiz-adv-x="991" d="M174 0v1475h76v-644q16 39 50 74t75 61.5t87 43t89 16.5q143 0 215 -84t72 -229v-713h-76v713q0 111 -50 174t-161 63q-57 0 -111.5 -28.5t-96.5 -74.5t-67.5 -103.5t-25.5 -112.5v-631h-76z" />
<glyph unicode="i" horiz-adv-x="479" d="M195 1276v117h90v-117h-90zM205 0v1004h76v-1004h-76z" />
<glyph unicode="j" horiz-adv-x="483" d="M-61 -410q84 49 136 89t79.5 89.5t37 115t9.5 163.5v957h75v-959q0 -109 -11 -187.5t-45 -138t-95.5 -105.5t-159.5 -89zM199 1276v117h92v-117h-92z" />
<glyph unicode="k" horiz-adv-x="759" d="M174 0v1454h76v-883h24l353 433h92l-377 -469l408 -535h-93l-385 496h-22v-496h-76z" />
<glyph unicode="l" horiz-adv-x="487" d="M205 0v1454h76v-1454h-76z" />
<glyph unicode="m" horiz-adv-x="1488" d="M176 0v1004h76v-173q43 86 107.5 139.5t164.5 53.5t160.5 -42t89.5 -140q35 86 117 134t178 48q141 0 203.5 -71.5t62.5 -213.5v-739h-75v739q0 100 -49.5 154.5t-149.5 54.5q-51 0 -99.5 -25.5t-87 -66.5t-62.5 -95t-24 -110v-651h-75v707q0 49 -10.5 93t-34 76.5 t-59.5 52t-85 19.5q-55 0 -104 -29.5t-86 -75.5t-59.5 -102.5t-22.5 -109.5v-631h-76z" />
<glyph unicode="n" horiz-adv-x="993" d="M174 0v1004h76v-156q57 88 123.5 133t177.5 45q143 0 215 -84t72 -229v-713h-76v713q0 115 -48 176t-163 61q-57 0 -111.5 -28.5t-96.5 -74.5t-67.5 -103.5t-25.5 -112.5v-631h-76z" />
<glyph unicode="o" horiz-adv-x="890" d="M113 295v416q0 147 92 230t239 83t239.5 -83t92.5 -230v-416q0 -150 -92 -234t-240 -84q-150 0 -240.5 84t-90.5 234zM188 295q0 -115 70 -178.5t186 -63.5q117 0 186.5 62.5t69.5 179.5v416q0 117 -69.5 177t-186.5 60t-186.5 -61.5t-69.5 -175.5v-416z" />
<glyph unicode="p" horiz-adv-x="958" d="M174 -451v1455h76v-123q43 66 115.5 104.5t154.5 38.5q141 0 231.5 -83t90.5 -232v-414q0 -154 -90 -234.5t-232 -80.5q-84 0 -153.5 25.5t-116.5 96.5v-553h-76zM248 317q0 -123 76.5 -192.5t195.5 -69.5q111 0 178.5 60.5t67.5 179.5v414q0 117 -66.5 178t-179.5 61 q-55 0 -104 -20.5t-87 -56t-59.5 -85t-21.5 -108.5v-361z" />
<glyph unicode="q" horiz-adv-x="892" d="M113 293v412q0 84 25.5 143t69.5 97t103 56.5t125 18.5q51 0 94 -14.5t77 -37t58.5 -50t41.5 -54.5v140h73v-1455h-73v580q-45 -61 -119 -106.5t-152 -45.5q-84 0 -144.5 25t-100 67t-59 99t-19.5 125zM188 293q0 -63 20.5 -108.5t54.5 -75t79 -43t94 -13.5 q63 0 112.5 20.5t84.5 57.5t53.5 85t18.5 103v359q0 61 -23 110.5t-60.5 84t-86 53t-99.5 18.5q-123 0 -185.5 -64.5t-62.5 -174.5v-412z" />
<glyph unicode="r" horiz-adv-x="585" d="M184 0v1004h76v-185q20 59 47 98t55.5 63t56 34t50.5 10q61 0 106 -12l-22 -94q-39 22 -84 22h-4q-39 0 -77 -28.5t-65.5 -79t-45 -119t-17.5 -148.5v-565h-76z" />
<glyph unicode="s" horiz-adv-x="733" d="M70 129l53 53q37 -49 70.5 -74.5t64.5 -37t57.5 -13.5t51.5 -2q104 0 162.5 39t58.5 146q0 43 -10.5 68.5t-34 48t-62.5 48t-98 68.5q-49 35 -95 64.5t-83 62.5t-59.5 75t-22.5 101q0 111 65.5 179.5t206.5 68.5q53 0 94 -12.5t72 -28.5t51.5 -35.5t32.5 -34.5l-41 -55 q-39 37 -95 63.5t-114 26.5q-96 0 -146 -40t-50 -130q0 -49 21.5 -82.5t55 -59.5t72.5 -48t76 -49q53 -39 96 -66t76 -57.5t50.5 -69.5t17.5 -102q0 -74 -23 -124t-62.5 -82t-94 -45t-119.5 -13q-109 0 -175.5 38.5t-119.5 110.5z" />
<glyph unicode="t" horiz-adv-x="610" d="M41 928v76h156v307h75v-307h236v-76h-236v-690q0 -92 35 -133.5t86 -41.5q23 0 59.5 7.5t100.5 38.5l27 -74q-33 -16 -83.5 -31.5t-99.5 -15.5q-55 0 -94 18.5t-62.5 51t-33.5 78.5t-10 100v692h-156z" />
<glyph unicode="u" horiz-adv-x="925" d="M174 297v707h76v-707q0 -117 52 -179.5t169 -62.5t171 62.5t54 179.5v707h76v-707q0 -150 -77 -233.5t-224 -83.5q-150 0 -223.5 83.5t-73.5 233.5z" />
<glyph unicode="v" horiz-adv-x="825" d="M51 1004h82l281 -861l278 861h82l-325 -1004h-72z" />
<glyph unicode="w" horiz-adv-x="1148" d="M51 1004h80l201 -865l205 865h71l209 -865l203 865h78l-244 -1006h-76l-203 840l-206 -840h-76z" />
<glyph unicode="x" horiz-adv-x="694" d="M45 0l258 522l-237 482h88l196 -402l195 402h92l-244 -482l258 -522h-86l-215 444l-217 -444h-88z" />
<glyph unicode="y" horiz-adv-x="753" d="M20 -379q66 0 113 19.5t82 56.5t59.5 88t42.5 115l17 63l-289 1041h82l254 -912l258 912h84l-332 -1133q-29 -98 -65.5 -161.5t-82.5 -99.5t-101.5 -50.5t-121.5 -14.5v76z" />
<glyph unicode="z" horiz-adv-x="798" d="M100 0v63l467 863h-461v78h558v-64l-459 -864h493v-76h-598z" />
<glyph unicode="{" horiz-adv-x="608" d="M174 602l84 125l-45 338q0 78 15.5 137.5t47 110.5t79.5 95t112 89l29 -74q-66 -47 -108 -91t-64.5 -87t-31.5 -86t-9 -90l49 -364l-68 -99l68 -86l-49 -416q6 -121 56 -203.5t157 -156.5l-29 -72q-82 57 -131 108.5t-77 104t-37 107.5t-9 117l45 387z" />
<glyph unicode="|" horiz-adv-x="464" d="M195 -301v1694h75v-1694h-75z" />
<glyph unicode="}" horiz-adv-x="612" d="M176 -256q106 74 156.5 157t56.5 203l-49 416l63 86l-63 99l49 364q0 49 -10 94t-33.5 88t-64.5 85t-105 87l29 74q66 -45 113 -89t78.5 -95t47 -110.5t15.5 -137.5l-45 -338l84 -125l-84 -106l45 -387q0 -66 -10.5 -122.5t-39 -107.5t-77.5 -101t-127 -106z" />
<glyph unicode="~" horiz-adv-x="686" d="M108 1270q35 68 64 93.5t76 25.5q33 0 62.5 -16.5t57 -35t53 -35t48.5 -16.5q18 4 30.5 22.5t26.5 47.5l64 -37q-23 -53 -56.5 -84t-74.5 -31q-43 0 -75 15.5t-56.5 34t-44 34t-37.5 15.5q-35 0 -50.5 -25t-25.5 -49z" />
<glyph unicode="&#xa1;" horiz-adv-x="475" d="M215 872v132h119v-132h-119zM217 -393l14 958h76l17 -958h-107z" />
<glyph unicode="&#xa2;" horiz-adv-x="837" d="M113 317v367q0 164 92 251t252 87h7t13 -4l39 278l74 -14l-37 -268q59 -20 100 -56t72 -86l-66 -55q-43 63 -85.5 94t-116.5 31q-121 0 -195 -65.5t-74 -192.5v-367q0 -135 69 -197.5t200 -62.5q70 0 114.5 23.5t92.5 81.5l53 -58q-57 -66 -115.5 -94t-138.5 -28h-62 l-39 -248l-77 14l43 258q-115 35 -165 112t-50 199z" />
<glyph unicode="&#xa3;" horiz-adv-x="966" d="M113 621v75h254l-15 283q0 115 32 194.5t88 132t133 76t169 23.5v-76q-190 0 -267 -101.5t-75 -283.5l14 -248h330v-75h-325q4 -51 6 -94.5t6 -75.5q4 -37 6 -68q0 -102 -29.5 -186t-79.5 -121h494v-76h-702v76q80 0 126 26.5t69.5 68.5t30.5 97.5t7 114.5l-12 238h-260z " />
<glyph unicode="&#xa5;" d="M51 1393h86l379 -629l387 629h82l-430 -715h356v-76h-358v-178h358v-76h-358v-348h-76v348h-350v76h350v178h-350v76h348z" />
<glyph unicode="&#xa6;" horiz-adv-x="301" d="M113 -240v666h75v-666h-75zM113 776v666h75v-666h-75z" />
<glyph unicode="&#xa7;" horiz-adv-x="1015" d="M129 569q0 57 16.5 96.5t40 66t51 44t52.5 31.5q-41 59 -51.5 130t-10.5 124q0 76 23.5 140.5t64.5 111.5t97.5 73.5t122.5 26.5q63 0 112 -17.5t87 -47t64.5 -69.5t41.5 -83l-68 -33q-29 92 -92.5 133t-142.5 41q-59 0 -103.5 -21.5t-73 -59t-43 -88t-14.5 -105.5 q0 -90 29.5 -153.5t74 -107.5t97.5 -72.5t100 -53.5q66 -31 121 -70t96 -84t64.5 -94t23.5 -100q0 -84 -33.5 -153t-119.5 -105q39 -59 52 -115.5t13 -118.5q0 -90 -30.5 -153.5t-78.5 -103.5t-104.5 -58.5t-105.5 -18.5q-55 0 -105.5 17.5t-92.5 47.5t-71.5 68.5 t-44.5 83.5l64 39q31 -92 102.5 -136t151.5 -44q121 0 180 74t59 184q0 90 -26.5 149.5t-68.5 99.5t-95 67.5t-106 52.5q-68 31 -126.5 65.5t-101.5 77.5t-67.5 97.5t-24.5 123.5zM205 567q0 -106 70.5 -173.5t191.5 -121.5q68 -31 132.5 -66.5t111.5 -76.5q35 4 58.5 22.5 t37.5 43t20.5 54t6.5 58.5q0 55 -27 101.5t-70 86.5t-98 73.5t-111 64.5q-35 18 -60.5 32.5t-46 28t-38.5 29.5t-41 37q-68 -16 -102.5 -73.5t-34.5 -119.5z" />
<glyph unicode="&#xa8;" horiz-adv-x="575" d="M102 1180v131h107v-131h-107zM371 1180v131h102v-131h-102z" />
<glyph unicode="&#xa9;" horiz-adv-x="1384" d="M113 713q0 154 33.5 285.5t104.5 229t180.5 153t262.5 55.5q150 0 259.5 -56.5t180 -155t105.5 -230.5t35 -281q0 -154 -34 -284t-104.5 -225t-180 -149.5t-261.5 -54.5q-150 0 -260 55.5t-181 150.5t-105.5 226t-34.5 281zM188 713q0 -135 29 -252t89.5 -202t156.5 -134 t231 -49q133 0 228.5 50t157 136t90 203t28.5 248q0 135 -27.5 252.5t-88 206t-157 138.5t-231.5 50q-133 0 -228 -51.5t-156.5 -139.5t-91.5 -205.5t-30 -250.5zM389 623v149q0 156 83 234.5t230 78.5q86 0 149.5 -32.5t113.5 -106.5l-60 -51q-41 59 -89 87t-114 28 q-113 0 -175 -59.5t-62 -178.5v-149q0 -123 60.5 -181.5t181.5 -58.5q131 0 213 100l47 -57q-55 -66 -118 -92.5t-142 -26.5q-156 0 -237 76t-81 240z" />
<glyph unicode="&#xaa;" horiz-adv-x="614" d="M113 997v107l299 51v72q0 37 -8.5 59.5t-22.5 33.5t-32.5 14t-41.5 3q-18 0 -38.5 -5t-40 -13t-36 -15.5t-26.5 -13.5l-35 68q14 8 38 17t49.5 17.5t50 13.5t38.5 7q61 0 97 -9t55.5 -33.5t26 -69t6.5 -111.5v-391h-84v84q-16 -41 -52.5 -64.5t-66.5 -23.5 q-59 0 -94 19.5t-53.5 50t-23.5 66.5t-5 66zM190 956q0 -37 30 -61.5t69 -24.5q47 0 83 28t36 63v124l-218 -36v-93z" />
<glyph unicode="&#xab;" horiz-adv-x="802" d="M113 313l239 349l74 -48l-205 -299l205 -295l-72 -47zM379 313l237 349l74 -48l-203 -299l203 -295l-72 -47z" />
<glyph unicode="&#xac;" horiz-adv-x="780" d="M113 596v76h555v-281h-76v205h-479z" />
<glyph unicode="&#xad;" horiz-adv-x="583" d="M113 532v76h358v-76h-358z" />
<glyph unicode="&#xae;" horiz-adv-x="1384" d="M113 713q0 154 33.5 284.5t104.5 226t180.5 149.5t262.5 54q150 0 259.5 -55t180 -152.5t105.5 -227.5t35 -279q0 -154 -34 -284t-104.5 -225t-180 -149.5t-261.5 -54.5q-150 0 -260 55.5t-181 150.5t-105.5 226t-34.5 281zM188 713q0 -135 29 -252t89.5 -202t156.5 -134 t231 -49q133 0 228.5 50t157 136t90 203t28.5 248q0 135 -27.5 251.5t-88 202.5t-157 135.5t-231.5 49.5q-133 0 -228 -50.5t-156.5 -136.5t-91.5 -202.5t-30 -249.5zM487 313v799h263q94 0 150 -48t56 -146v-64q0 -76 -49 -131t-121 -66l168 -344h-94l-166 340h-127v-340 h-80zM565 729h178q68 0 95.5 29.5t27.5 97.5v59q2 66 -29.5 93.5t-93.5 27.5h-178v-307z" />
<glyph unicode="&#xaf;" horiz-adv-x="823" d="M102 1303v75h619v-75h-619z" />
<glyph unicode="&#xb0;" horiz-adv-x="643" d="M113 1145v63q0 49 17 87t46 64.5t66.5 40t76.5 13.5q51 0 91.5 -17.5t67 -46t39.5 -65.5t13 -76v-63q0 -49 -17 -88t-47 -64.5t-68 -39t-79 -13.5q-100 0 -153 62.5t-53 142.5zM188 1145q0 -66 40 -97.5t91 -31.5q66 0 100 38t34 91v63q0 59 -41 94t-93 35q-63 0 -97 -41 t-34 -88v-63z" />
<glyph unicode="&#xb1;" horiz-adv-x="940" d="M113 0v76h714v-76h-714zM113 631v76h311v364h76v-364h311v-76h-311v-391h-76v391h-311z" />
<glyph unicode="&#xb2;" horiz-adv-x="933" d="M209 1241q35 86 93.5 129t162.5 43q72 0 117 -16.5t70.5 -45t34.5 -66.5t9 -81q0 -51 -17 -88t-44 -64.5t-59.5 -47t-63.5 -37.5q-45 -25 -82 -44.5t-64.5 -42t-43 -52t-19.5 -74.5h389v-76h-465v76q0 72 24.5 116.5t63.5 75.5t84 52.5t84 41.5q78 41 108 77t30 87 t-14.5 78t-37 39t-49 14t-53.5 2q-80 0 -118 -32.5t-73 -102.5z" />
<glyph unicode="&#xb3;" horiz-adv-x="620" d="M104 840h76q0 -39 11.5 -60.5t32 -33t46 -14.5t56.5 -3q72 0 111.5 19.5t39.5 72.5v33q0 31 -12 56.5t-33.5 46t-47.5 31.5t-54 11h-109v76h98q72 0 111 38t39 83v12q0 45 -12.5 68.5t-33 35t-46 12.5t-51.5 1q-74 0 -110 -36t-36 -95h-76q0 55 17.5 94t48.5 64.5t71 37 t85 11.5q115 0 168 -47t53 -146v-14q0 -37 -12.5 -63.5t-33 -45t-47 -31t-53.5 -20.5q27 -2 54.5 -13t49 -32.5t36 -54.5t14.5 -80v-33q0 -72 -65.5 -120t-163.5 -48q-111 0 -166.5 48.5t-55.5 138.5z" />
<glyph unicode="&#xb4;" horiz-adv-x="430" d="M102 1147l156 274l70 -53l-168 -268z" />
<glyph unicode="&#xb6;" horiz-adv-x="890" d="M113 1040v60q0 139 66.5 216t195.5 77h317v-1393h-78v1325h-125v-1325h-75v774h-39q-145 0 -203.5 70.5t-58.5 195.5z" />
<glyph unicode="&#xb7;" horiz-adv-x="342" d="M154 408v172h155v-172h-155z" />
<glyph unicode="&#xb8;" horiz-adv-x="399" d="M100 -446q43 25 81 54.5t38 82.5q0 57 -17.5 86.5t-39.5 42.5q-25 14 -58 14l33 166h74l-29 -111q12 -4 31.5 -14t38 -30.5t32 -54.5t13.5 -85q0 -78 -50 -129t-126 -74z" />
<glyph unicode="&#xb9;" horiz-adv-x="501" d="M72 1317v76h276v-695h-76v619h-200z" />
<glyph unicode="&#xba;" horiz-adv-x="645" d="M113 995v222q0 49 17 85.5t46 62.5t66.5 38t76.5 12q59 0 99.5 -18.5t65 -48t35.5 -64.5t11 -70v-223q0 -49 -17 -86t-47 -61.5t-68 -36.5t-79 -12q-100 0 -153 58t-53 142zM188 993q0 -20 6.5 -41.5t22.5 -40t41 -30t61 -11.5q66 0 100 35t34 90v222q0 35 -11.5 58 t-31 37.5t-43 20.5t-48.5 6q-61 0 -93.5 -33.5t-37.5 -88.5v-224z" />
<glyph unicode="&#xbb;" horiz-adv-x="790" d="M88 39l205 295l-205 299l76 47l235 -348l-237 -340zM352 39l205 295l-205 299l76 47l238 -348l-242 -340z" />
<glyph unicode="&#xbc;" horiz-adv-x="1245" d="M72 1317v76h276v-695h-76v619h-200zM186 0l691 1393h92l-686 -1393h-97zM658 205v80l258 451h133v-451h129v-80h-129v-207h-76v207h-315zM752 285h221v387h-10z" />
<glyph unicode="&#xbd;" horiz-adv-x="1275" d="M72 1317v76h276v-695h-76v619h-200zM96 0l691 1393h92l-686 -1393h-97zM617 575q35 86 93.5 129t162.5 43q72 0 117 -16.5t70.5 -45t34.5 -66.5t9 -81q0 -51 -17 -88t-44 -64.5t-59.5 -47t-63.5 -37.5q-45 -25 -82 -44.5t-64.5 -42t-43 -52t-19.5 -74.5h389v-76h-465v76 q0 72 24.5 116.5t63.5 75.5t84 52.5t84 41.5q78 41 108 77t30 87t-14.5 78t-37 39t-49 14t-53.5 2q-80 0 -118 -32.5t-73 -102.5z" />
<glyph unicode="&#xbe;" horiz-adv-x="1273" d="M112 840h76q0 -39 11.5 -60.5t32 -33t46 -14.5t56.5 -3q72 0 111.5 19.5t39.5 72.5v33q0 31 -12 56.5t-33.5 46t-47.5 31.5t-54 11h-109v76h98q72 0 111 38t39 83v12q0 45 -12.5 68.5t-33 35t-46 12.5t-51.5 1q-74 0 -110 -36t-36 -95h-76q0 55 17.5 94t48.5 64.5t71 37 t85 11.5q115 0 168 -47t53 -146v-14q0 -37 -12.5 -63.5t-33 -45t-47 -31t-53.5 -20.5q27 -2 54.5 -13t49 -32.5t36 -54.5t14.5 -80v-33q0 -72 -65.5 -120t-163.5 -48q-111 0 -166.5 48.5t-55.5 138.5zM309 0l691 1393h92l-686 -1393h-97zM741 200v80l258 451h133v-451h129 v-80h-129v-207h-76v207h-315zM835 280h221v387h-10z" />
<glyph unicode="&#xbf;" horiz-adv-x="669" d="M106 -14q0 49 27 99t62 87q41 41 71.5 78t50 74.5t28.5 83t9 104.5v100h80v-166q0 -72 -42 -149.5t-99 -130.5q-43 -45 -77 -90t-34 -99v-147q0 -45 4 -80t20.5 -57.5t50.5 -34.5t93 -12q53 0 107.5 37.5t93.5 78.5l51 -57q-57 -59 -122.5 -97t-133.5 -38 q-125 0 -182.5 54t-57.5 188v174zM315 834v172h144v-172h-144z" />
<glyph unicode="&#xc0;" d="M51 0l443 1413h59l432 -1413h-78l-153 494h-465l-158 -494h-80zM309 569h422l-209 701zM342 1796l74 51l154 -280l-60 -49z" />
<glyph unicode="&#xc1;" d="M51 0l443 1413h59l432 -1413h-78l-153 494h-465l-158 -494h-80zM309 569h422l-209 701zM452 1577l156 274l70 -53l-168 -268z" />
<glyph unicode="&#xc2;" d="M51 0l443 1413h59l432 -1413h-78l-153 494h-465l-158 -494h-80zM303 1577l211 168l203 -168l-39 -62l-164 136l-168 -134zM309 569h422l-209 701z" />
<glyph unicode="&#xc3;" d="M51 0l443 1413h59l432 -1413h-78l-153 494h-465l-158 -494h-80zM268 1618q35 68 64 93.5t76 25.5q33 0 62.5 -16.5t57 -35t53 -35t48.5 -16.5q18 4 30.5 22.5t26.5 47.5l64 -37q-23 -53 -56.5 -84t-74.5 -31q-43 0 -75 15.5t-56.5 34t-44 34t-37.5 15.5q-35 0 -50.5 -25 t-25.5 -49zM309 569h422l-209 701z" />
<glyph unicode="&#xc4;" d="M51 0l443 1413h59l432 -1413h-78l-153 494h-465l-158 -494h-80zM309 569h422l-209 701zM325 1526v131h107v-131h-107zM594 1526v131h102v-131h-102z" />
<glyph unicode="&#xc5;" d="M51 0l443 1413h59l432 -1413h-78l-153 494h-465l-158 -494h-80zM309 569h422l-209 701zM379 1691q0 86 46 125t99 39q72 0 110 -46t38 -118q0 -82 -47.5 -120.5t-100.5 -38.5q-68 0 -106.5 44t-38.5 115zM455 1687q0 -43 21.5 -60t49.5 -17q35 0 52.5 21.5t17.5 55.5 q0 47 -21.5 68.5t-48.5 21.5q-33 0 -52 -26.5t-19 -63.5z" />
<glyph unicode="&#xc6;" horiz-adv-x="1490" d="M47 0l707 1393h602v-76h-484v-555h406v-76h-408v-610h529v-76h-604v430h-439l-227 -430h-82zM401 506h394v813z" />
<glyph unicode="&#xc7;" horiz-adv-x="954" d="M133 354v676q0 98 31 170t83 119t124.5 70.5t154.5 23.5q129 0 220.5 -58.5t140.5 -131.5l-60 -56q-57 82 -136 126t-165 44q-84 0 -144 -25.5t-98 -67.5t-56.5 -97t-18.5 -117v-676q0 -82 23.5 -139t65.5 -93t100.5 -51.5t127.5 -15.5q104 0 182 35t130 92l45 -59 q-72 -76 -164 -109.5t-193 -33.5q-109 0 -184.5 29.5t-121.5 79.5t-66.5 118.5t-20.5 146.5zM469 -446q43 25 81 54.5t38 82.5q0 57 -17.5 86.5t-39.5 42.5q-25 14 -58 14l33 166h74l-29 -111q12 -4 31.5 -14t38 -30.5t32 -54.5t13.5 -85q0 -78 -50 -129t-126 -74z" />
<glyph unicode="&#xc8;" horiz-adv-x="911" d="M195 0v1393h561v-76h-486v-563h408v-76h-408v-602h529v-76h-604zM299 1780l74 51l154 -280l-60 -49z" />
<glyph unicode="&#xc9;" horiz-adv-x="911" d="M195 0v1393h561v-76h-486v-563h408v-76h-408v-602h529v-76h-604zM409 1577l156 274l70 -53l-168 -268z" />
<glyph unicode="&#xca;" horiz-adv-x="911" d="M195 0v1393h561v-76h-486v-563h408v-76h-408v-602h529v-76h-604zM258 1577l211 168l203 -168l-39 -62l-164 136l-168 -134z" />
<glyph unicode="&#xcb;" horiz-adv-x="911" d="M195 0v1393h561v-76h-486v-563h408v-76h-408v-602h529v-76h-604zM282 1526v131h107v-131h-107zM551 1526v131h102v-131h-102z" />
<glyph unicode="&#xcc;" horiz-adv-x="550" d="M90 1800l74 51l154 -280l-60 -49zM256 0v1393h75v-1393h-75z" />
<glyph unicode="&#xcd;" horiz-adv-x="550" d="M202 1577l156 274l70 -53l-168 -268zM263 0v1393h75v-1393h-75z" />
<glyph unicode="&#xce;" horiz-adv-x="550" d="M61 1579l211 168l203 -168l-39 -62l-164 136l-168 -134zM267 0v1393h75v-1393h-75z" />
<glyph unicode="&#xcf;" horiz-adv-x="550" d="M92 1522v131h107v-131h-107zM275 0v1393h75v-1393h-75zM361 1522v131h102v-131h-102z" />
<glyph unicode="&#xd0;" horiz-adv-x="1175" d="M57 666v75h246v652h330q221 0 325.5 -102.5t104.5 -274.5v-643q0 -113 -34 -184.5t-92 -113.5t-137 -58.5t-169 -16.5h-328v666h-246zM379 76h252q190 0 273 74.5t83 222.5v643q0 86 -29.5 144.5t-80 93t-114 49t-130.5 14.5h-254v-576h262v-75h-262v-590z" />
<glyph unicode="&#xd1;" horiz-adv-x="1265" d="M195 0v1393h100l700 -1276v1276h76v-1393h-88l-713 1268v-1268h-75zM362 1598q35 68 64 93.5t76 25.5q33 0 62.5 -16.5t57 -35t53 -35t48.5 -16.5q18 4 30.5 22.5t26.5 47.5l64 -37q-23 -53 -56.5 -84t-74.5 -31q-43 0 -75 15.5t-56.5 34t-44 34t-37.5 15.5 q-35 0 -50.5 -25t-25.5 -49z" />
<glyph unicode="&#xd2;" horiz-adv-x="1153" d="M133 379v631q0 90 33 163.5t91 127t136 83t168 29.5h27q90 0 169 -28.5t137 -82t91 -128t33 -164.5v-631q0 -92 -33 -167t-90 -126t-136 -78.5t-171 -27.5h-25q-94 0 -173 27.5t-136 78.5t-89 125t-32 168zM209 379q0 -76 26.5 -136.5t73.5 -102.5t112.5 -63.5 t141.5 -21.5h25q78 0 142.5 21.5t111.5 63.5t73.5 102.5t26.5 136.5v631q0 72 -28.5 131t-78 103t-113 68.5t-134.5 24.5h-27q-72 0 -136.5 -24.5t-112.5 -67.5t-75.5 -103.5t-27.5 -131.5v-631zM385 1800l74 51l154 -280l-60 -49z" />
<glyph unicode="&#xd3;" horiz-adv-x="1153" d="M133 379v631q0 90 33 163.5t91 127t136 83t168 29.5h27q90 0 169 -28.5t137 -82t91 -128t33 -164.5v-631q0 -92 -33 -167t-90 -126t-136 -78.5t-171 -27.5h-25q-94 0 -173 27.5t-136 78.5t-89 125t-32 168zM209 379q0 -76 26.5 -136.5t73.5 -102.5t112.5 -63.5 t141.5 -21.5h25q78 0 142.5 21.5t111.5 63.5t73.5 102.5t26.5 136.5v631q0 72 -28.5 131t-78 103t-113 68.5t-134.5 24.5h-27q-72 0 -136.5 -24.5t-112.5 -67.5t-75.5 -103.5t-27.5 -131.5v-631zM495 1577l156 274l70 -53l-168 -268z" />
<glyph unicode="&#xd4;" horiz-adv-x="1153" d="M133 379v631q0 90 33 163.5t91 127t136 83t168 29.5h27q90 0 169 -28.5t137 -82t91 -128t33 -164.5v-631q0 -92 -33 -167t-90 -126t-136 -78.5t-171 -27.5h-25q-94 0 -173 27.5t-136 78.5t-89 125t-32 168zM209 379q0 -76 26.5 -136.5t73.5 -102.5t112.5 -63.5 t141.5 -21.5h25q78 0 142.5 21.5t111.5 63.5t73.5 102.5t26.5 136.5v631q0 72 -28.5 131t-78 103t-113 68.5t-134.5 24.5h-27q-72 0 -136.5 -24.5t-112.5 -67.5t-75.5 -103.5t-27.5 -131.5v-631zM346 1598l211 168l203 -168l-39 -62l-164 136l-168 -134z" />
<glyph unicode="&#xd5;" horiz-adv-x="1153" d="M133 379v631q0 90 33 163.5t91 127t136 83t168 29.5h27q90 0 169 -28.5t137 -82t91 -128t33 -164.5v-631q0 -92 -33 -167t-90 -126t-136 -78.5t-171 -27.5h-25q-94 0 -173 27.5t-136 78.5t-89 125t-32 168zM209 379q0 -76 26.5 -136.5t73.5 -102.5t112.5 -63.5 t141.5 -21.5h25q78 0 142.5 21.5t111.5 63.5t73.5 102.5t26.5 136.5v631q0 72 -28.5 131t-78 103t-113 68.5t-134.5 24.5h-27q-72 0 -136.5 -24.5t-112.5 -67.5t-75.5 -103.5t-27.5 -131.5v-631zM311 1618q35 68 64 93.5t76 25.5q33 0 62.5 -16.5t57 -35t53 -35t48.5 -16.5 q18 4 30.5 22.5t26.5 47.5l64 -37q-23 -53 -56.5 -84t-74.5 -31q-43 0 -75 15.5t-56.5 34t-44 34t-37.5 15.5q-35 0 -50.5 -25t-25.5 -49z" />
<glyph unicode="&#xd6;" horiz-adv-x="1153" d="M133 379v631q0 90 33 163.5t91 127t136 83t168 29.5h27q90 0 169 -28.5t137 -82t91 -128t33 -164.5v-631q0 -92 -33 -167t-90 -126t-136 -78.5t-171 -27.5h-25q-94 0 -173 27.5t-136 78.5t-89 125t-32 168zM209 379q0 -76 26.5 -136.5t73.5 -102.5t112.5 -63.5 t141.5 -21.5h25q78 0 142.5 21.5t111.5 63.5t73.5 102.5t26.5 136.5v631q0 72 -28.5 131t-78 103t-113 68.5t-134.5 24.5h-27q-72 0 -136.5 -24.5t-112.5 -67.5t-75.5 -103.5t-27.5 -131.5v-631zM368 1526v131h107v-131h-107zM637 1526v131h102v-131h-102z" />
<glyph unicode="&#xd7;" horiz-adv-x="923" d="M113 0l303 522l-283 482h88l240 -402l241 402h89l-285 -482l305 -522h-90l-260 444l-258 -444h-90z" />
<glyph unicode="&#xd8;" horiz-adv-x="1114" d="M133 379v631q0 90 33 163.5t91 127t136 83t168 29.5h27q49 0 96 -9t88 -26l64 181h75l-71 -218q82 -51 130 -136t48 -195v-631q0 -92 -33 -167t-90 -126t-136 -78.5t-171 -27.5h-25q-49 0 -93 8t-83 20l-55 -164h-82l67 195q-86 51 -135 136t-49 204zM209 379 q0 -90 36 -155.5t97 -106.5l403 1183q-35 16 -75.5 26.5t-81.5 10.5h-27q-72 0 -136.5 -24.5t-112.5 -67.5t-75.5 -103.5t-27.5 -131.5v-631zM410 80q68 -25 153 -25h25q78 0 142.5 21.5t111.5 63.5t73.5 102.5t26.5 136.5v631q0 78 -36 143.5t-95 108.5z" />
<glyph unicode="&#xd9;" horiz-adv-x="1230" d="M195 381v1012h75v-1012q0 -90 29 -152.5t78 -100.5t112.5 -55.5t131.5 -17.5q70 0 131 21.5t107 63.5t72.5 102.5t26.5 138.5v1012h76v-1012q0 -106 -32.5 -183t-90 -125t-132 -70.5t-158.5 -22.5q-111 0 -192 30.5t-133 83.5t-76.5 127t-24.5 160zM413 1739l74 51 l154 -280l-60 -49z" />
<glyph unicode="&#xda;" horiz-adv-x="1230" d="M195 381v1012h75v-1012q0 -90 29 -152.5t78 -100.5t112.5 -55.5t131.5 -17.5q70 0 131 21.5t107 63.5t72.5 102.5t26.5 138.5v1012h76v-1012q0 -106 -32.5 -183t-90 -125t-132 -70.5t-158.5 -22.5q-111 0 -192 30.5t-133 83.5t-76.5 127t-24.5 160zM524 1516l156 274 l70 -53l-168 -268z" />
<glyph unicode="&#xdb;" horiz-adv-x="1230" d="M195 381v1012h75v-1012q0 -90 29 -152.5t78 -100.5t112.5 -55.5t131.5 -17.5q70 0 131 21.5t107 63.5t72.5 102.5t26.5 138.5v1012h76v-1012q0 -106 -32.5 -183t-90 -125t-132 -70.5t-158.5 -22.5q-111 0 -192 30.5t-133 83.5t-76.5 127t-24.5 160zM374 1583l211 168 l203 -168l-39 -62l-164 136l-168 -134z" />
<glyph unicode="&#xdc;" horiz-adv-x="1230" d="M195 381v1012h75v-1012q0 -90 29 -152.5t78 -100.5t112.5 -55.5t131.5 -17.5q70 0 131 21.5t107 63.5t72.5 102.5t26.5 138.5v1012h76v-1012q0 -106 -32.5 -183t-90 -125t-132 -70.5t-158.5 -22.5q-111 0 -192 30.5t-133 83.5t-76.5 127t-24.5 160zM395 1528v131h107 v-131h-107zM664 1528v131h102v-131h-102z" />
<glyph unicode="&#xdd;" horiz-adv-x="1067" d="M51 1393h86l383 -727l389 727h86l-438 -826v-567h-76v567zM456 1518l156 274l70 -53l-168 -268z" />
<glyph unicode="&#xde;" horiz-adv-x="874" d="M113 0v1391h75v-287h289q80 0 134.5 -27.5t88 -75t48 -109t14.5 -128.5v-41q0 -162 -76 -234.5t-209 -72.5h-289v-416h-75zM188 492h289q59 0 99 18t65 50t35 74t10 89v41q0 121 -53 192.5t-156 71.5h-289v-536z" />
<glyph unicode="&#xe0;" horiz-adv-x="880" d="M115 219v258l540 111v153q0 113 -44 160t-154 47q-25 0 -62 -9t-76.5 -23.5t-77.5 -33t-65 -36.5l-33 76q25 16 64 33.5t84 33t89 25.5t77 10q147 0 210.5 -69.5t63.5 -213.5v-741h-76v131q-35 -68 -98 -109.5t-156 -41.5q-57 0 -109 15t-92 46t-62.5 76t-22.5 102z M195 219q0 -41 17 -71.5t46 -51t66.5 -31t78.5 -10.5q53 0 98.5 20.5t80 55.5t54 81t19.5 99v199l-460 -94v-197zM231 1393l74 51l154 -280l-60 -49z" />
<glyph unicode="&#xe1;" horiz-adv-x="880" d="M115 219v258l540 111v153q0 113 -44 160t-154 47q-25 0 -62 -9t-76.5 -23.5t-77.5 -33t-65 -36.5l-33 76q25 16 64 33.5t84 33t89 25.5t77 10q147 0 210.5 -69.5t63.5 -213.5v-741h-76v131q-35 -68 -98 -109.5t-156 -41.5q-57 0 -109 15t-92 46t-62.5 76t-22.5 102z M195 219q0 -41 17 -71.5t46 -51t66.5 -31t78.5 -10.5q53 0 98.5 20.5t80 55.5t54 81t19.5 99v199l-460 -94v-197zM342 1167l156 274l70 -53l-168 -268z" />
<glyph unicode="&#xe2;" horiz-adv-x="880" d="M115 219v258l540 111v153q0 113 -44 160t-154 47q-25 0 -62 -9t-76.5 -23.5t-77.5 -33t-65 -36.5l-33 76q25 16 64 33.5t84 33t89 25.5t77 10q147 0 210.5 -69.5t63.5 -213.5v-741h-76v131q-35 -68 -98 -109.5t-156 -41.5q-57 0 -109 15t-92 46t-62.5 76t-22.5 102z M194 1213l211 168l203 -168l-39 -62l-164 136l-168 -134zM195 219q0 -41 17 -71.5t46 -51t66.5 -31t78.5 -10.5q53 0 98.5 20.5t80 55.5t54 81t19.5 99v199l-460 -94v-197z" />
<glyph unicode="&#xe3;" horiz-adv-x="880" d="M115 219v258l540 111v153q0 113 -44 160t-154 47q-25 0 -62 -9t-76.5 -23.5t-77.5 -33t-65 -36.5l-33 76q25 16 64 33.5t84 33t89 25.5t77 10q147 0 210.5 -69.5t63.5 -213.5v-741h-76v131q-35 -68 -98 -109.5t-156 -41.5q-57 0 -109 15t-92 46t-62.5 76t-22.5 102z M159 1270q35 68 64 93.5t76 25.5q33 0 62.5 -16.5t57 -35t53 -35t48.5 -16.5q18 4 30.5 22.5t26.5 47.5l64 -37q-23 -53 -56.5 -84t-74.5 -31q-43 0 -75 15.5t-56.5 34t-44 34t-37.5 15.5q-35 0 -50.5 -25t-25.5 -49zM195 219q0 -41 17 -71.5t46 -51t66.5 -31t78.5 -10.5 q53 0 98.5 20.5t80 55.5t54 81t19.5 99v199l-460 -94v-197z" />
<glyph unicode="&#xe4;" horiz-adv-x="880" d="M115 219v258l540 111v153q0 113 -44 160t-154 47q-25 0 -62 -9t-76.5 -23.5t-77.5 -33t-65 -36.5l-33 76q25 16 64 33.5t84 33t89 25.5t77 10q147 0 210.5 -69.5t63.5 -213.5v-741h-76v131q-35 -68 -98 -109.5t-156 -41.5q-57 0 -109 15t-92 46t-62.5 76t-22.5 102z M195 219q0 -41 17 -71.5t46 -51t66.5 -31t78.5 -10.5q53 0 98.5 20.5t80 55.5t54 81t19.5 99v199l-460 -94v-197zM215 1162v131h107v-131h-107zM484 1162v131h102v-131h-102z" />
<glyph unicode="&#xe5;" horiz-adv-x="880" d="M115 219v258l540 111v153q0 113 -44 160t-154 47q-25 0 -62 -9t-76.5 -23.5t-77.5 -33t-65 -36.5l-33 76q25 16 64 33.5t84 33t89 25.5t77 10q147 0 210.5 -69.5t63.5 -213.5v-741h-76v131q-35 -68 -98 -109.5t-156 -41.5q-57 0 -109 15t-92 46t-62.5 76t-22.5 102z M195 219q0 -41 17 -71.5t46 -51t66.5 -31t78.5 -10.5q53 0 98.5 20.5t80 55.5t54 81t19.5 99v199l-460 -94v-197zM270 1300q0 86 46 125t99 39q72 0 110 -46t38 -118q0 -82 -47.5 -120.5t-100.5 -38.5q-68 0 -106.5 44t-38.5 115zM346 1296q0 -43 21.5 -60t49.5 -17 q35 0 52.5 21.5t17.5 55.5q0 47 -21.5 68.5t-48.5 21.5q-33 0 -52 -26.5t-19 -63.5z" />
<glyph unicode="&#xe6;" horiz-adv-x="1411" d="M113 217v260l538 88v174q0 113 -46 160t-159 47q-27 0 -62.5 -9t-74.5 -23.5t-74.5 -32t-60.5 -35.5l-37 74q29 20 70 38.5t84 33t85 22.5t70 8q213 0 259 -158q41 72 111.5 115t164.5 43q70 0 127 -15.5t98 -52t63.5 -98t22.5 -151.5v-134l-565 -79v-160q0 -129 78 -204 t207 -75q55 0 114.5 16.5t122.5 67.5l49 -63q-59 -53 -135 -75t-151 -22q-113 0 -196 44.5t-124 128.5q-41 -92 -120.5 -132.5t-174.5 -40.5q-57 0 -109 15.5t-91 46.5t-61.5 76t-22.5 102zM190 217q0 -41 17.5 -71.5t46.5 -50t66.5 -30t78.5 -10.5q53 0 99.5 15.5t80 44 t54 69.5t20.5 95v206l-463 -69v-199zM727 567l490 68v115q0 96 -66 146t-170 50q-51 0 -97 -22.5t-81 -59.5t-55.5 -86t-20.5 -102v-109z" />
<glyph unicode="&#xe7;" horiz-adv-x="784" d="M113 295v403q0 70 23.5 129.5t64.5 103.5t99 68.5t128 24.5q78 0 147.5 -39t116.5 -104l-57 -56q-35 53 -91.5 88t-115.5 35q-53 0 -97 -19.5t-76 -53t-49.5 -78.5t-17.5 -99v-403q0 -111 65.5 -175.5t178.5 -64.5q53 0 108.5 23.5t88.5 64.5l53 -59q-20 -25 -50 -44.5 t-65 -32.5t-69.5 -20t-65.5 -7q-147 0 -233 85t-86 230zM348 -417q43 25 81 54.5t38 82.5q0 57 -17.5 86.5t-39.5 42.5q-25 14 -58 14l33 166h74l-29 -111q12 -4 31.5 -14t38 -30.5t32 -54.5t13.5 -85q0 -78 -50 -129t-126 -74z" />
<glyph unicode="&#xe8;" horiz-adv-x="851" d="M113 334v364q0 72 25.5 132.5t69.5 103.5t104.5 66.5t129.5 23.5q141 0 226.5 -89t85.5 -237v-125l-566 -100v-139q0 -129 77 -204t206 -75q55 0 115.5 13.5t124.5 70.5l49 -63q-59 -59 -135 -77.5t-154 -18.5q-80 0 -145.5 25.5t-112.5 72.5t-73.5 112.5t-26.5 143.5z M188 549l490 88l-8 111q-23 98 -74.5 149t-153.5 51q-51 0 -97 -18.5t-81 -52t-55.5 -79.5t-20.5 -100v-149zM247 1370l74 51l154 -280l-60 -49z" />
<glyph unicode="&#xe9;" horiz-adv-x="851" d="M113 334v364q0 72 25.5 132.5t69.5 103.5t104.5 66.5t129.5 23.5q141 0 226.5 -89t85.5 -237v-125l-566 -100v-139q0 -129 77 -204t206 -75q55 0 115.5 13.5t124.5 70.5l49 -63q-59 -59 -135 -77.5t-154 -18.5q-80 0 -145.5 25.5t-112.5 72.5t-73.5 112.5t-26.5 143.5z M188 549l490 88l-8 111q-23 98 -74.5 149t-153.5 51q-51 0 -97 -18.5t-81 -52t-55.5 -79.5t-20.5 -100v-149zM358 1167l156 274l70 -53l-168 -268z" />
<glyph unicode="&#xea;" horiz-adv-x="851" d="M113 334v364q0 72 25.5 132.5t69.5 103.5t104.5 66.5t129.5 23.5q141 0 226.5 -89t85.5 -237v-125l-566 -100v-139q0 -129 77 -204t206 -75q55 0 115.5 13.5t124.5 70.5l49 -63q-59 -59 -135 -77.5t-154 -18.5q-80 0 -145.5 25.5t-112.5 72.5t-73.5 112.5t-26.5 143.5z M188 549l490 88l-8 111q-23 98 -74.5 149t-153.5 51q-51 0 -97 -18.5t-81 -52t-55.5 -79.5t-20.5 -100v-149zM211 1211l211 168l203 -168l-39 -62l-164 136l-168 -134z" />
<glyph unicode="&#xeb;" horiz-adv-x="851" d="M113 334v364q0 72 25.5 132.5t69.5 103.5t104.5 66.5t129.5 23.5q141 0 226.5 -89t85.5 -237v-125l-566 -100v-139q0 -129 77 -204t206 -75q55 0 115.5 13.5t124.5 70.5l49 -63q-59 -59 -135 -77.5t-154 -18.5q-80 0 -145.5 25.5t-112.5 72.5t-73.5 112.5t-26.5 143.5z M188 549l490 88l-8 111q-23 98 -74.5 149t-153.5 51q-51 0 -97 -18.5t-81 -52t-55.5 -79.5t-20.5 -100v-149zM231 1145v131h107v-131h-107zM500 1145v131h102v-131h-102z" />
<glyph unicode="&#xec;" horiz-adv-x="479" d="M26 1390l74 51l154 -280l-60 -49zM189 0v1004h75v-1004h-75z" />
<glyph unicode="&#xed;" horiz-adv-x="479" d="M133 1167l156 274l70 -53l-168 -268zM189 0v1004h75v-1004h-75z" />
<glyph unicode="&#xee;" horiz-adv-x="479" d="M22 1229l211 168l203 -168l-39 -62l-164 136l-168 -134zM197 0v1004h75v-1004h-75z" />
<glyph unicode="&#xef;" horiz-adv-x="479" d="M45 1162v131h107v-131h-107zM195 0v1004h75v-1004h-75zM314 1162v131h102v-131h-102z" />
<glyph unicode="&#xf0;" horiz-adv-x="909" d="M113 295v389q0 70 15 127t53 99t99.5 64.5t153.5 22.5t144.5 -23.5t99.5 -86.5q-23 123 -65 203.5t-93 152.5l-250 -131l-28 62l235 126q-70 78 -128 114t-134 50l14 76q61 -18 106.5 -38.5t81.5 -45t66.5 -54.5t61.5 -65l225 127l27 -61l-211 -119q111 -147 150.5 -305 t39.5 -322v-362q0 -88 -27.5 -148.5t-75.5 -97.5t-109.5 -53t-129.5 -16q-172 0 -246.5 86t-74.5 229zM188 295q0 -70 18.5 -116t52.5 -73.5t79 -39t96 -11.5q139 0 202.5 64.5t63.5 175.5v362q0 72 -21.5 122t-58 82t-85 46.5t-101.5 14.5q-133 0 -189.5 -63.5 t-56.5 -174.5v-389z" />
<glyph unicode="&#xf1;" horiz-adv-x="993" d="M174 0v1004h76v-156q57 88 123.5 133t177.5 45q143 0 215 -84t72 -229v-713h-76v713q0 115 -48 176t-163 61q-57 0 -111.5 -28.5t-96.5 -74.5t-67.5 -103.5t-25.5 -112.5v-631h-76zM233 1270q35 68 64 93.5t76 25.5q33 0 62.5 -16.5t57 -35t53 -35t48.5 -16.5 q18 4 30.5 22.5t26.5 47.5l64 -37q-23 -53 -56.5 -84t-74.5 -31q-43 0 -75 15.5t-56.5 34t-44 34t-37.5 15.5q-35 0 -50.5 -25t-25.5 -49z" />
<glyph unicode="&#xf2;" horiz-adv-x="890" d="M113 295v416q0 147 92 230t239 83t239.5 -83t92.5 -230v-416q0 -150 -92 -234t-240 -84q-150 0 -240.5 84t-90.5 234zM188 295q0 -115 70 -178.5t186 -63.5q117 0 186.5 62.5t69.5 179.5v416q0 117 -69.5 177t-186.5 60t-186.5 -61.5t-69.5 -175.5v-416zM258 1370l74 51 l154 -280l-60 -49z" />
<glyph unicode="&#xf3;" horiz-adv-x="890" d="M113 295v416q0 147 92 230t239 83t239.5 -83t92.5 -230v-416q0 -150 -92 -234t-240 -84q-150 0 -240.5 84t-90.5 234zM188 295q0 -115 70 -178.5t186 -63.5q117 0 186.5 62.5t69.5 179.5v416q0 117 -69.5 177t-186.5 60t-186.5 -61.5t-69.5 -175.5v-416zM368 1167 l156 274l70 -53l-168 -268z" />
<glyph unicode="&#xf4;" horiz-adv-x="890" d="M113 295v416q0 147 92 230t239 83t239.5 -83t92.5 -230v-416q0 -150 -92 -234t-240 -84q-150 0 -240.5 84t-90.5 234zM188 295q0 -115 70 -178.5t186 -63.5q117 0 186.5 62.5t69.5 179.5v416q0 117 -69.5 177t-186.5 60t-186.5 -61.5t-69.5 -175.5v-416zM217 1211 l211 168l203 -168l-39 -62l-164 136l-168 -134z" />
<glyph unicode="&#xf5;" horiz-adv-x="890" d="M113 295v416q0 147 92 230t239 83t239.5 -83t92.5 -230v-416q0 -150 -92 -234t-240 -84q-150 0 -240.5 84t-90.5 234zM184 1231q35 68 64 93.5t76 25.5q33 0 62.5 -16.5t57 -35t53 -35t48.5 -16.5q18 4 30.5 22.5t26.5 47.5l64 -37q-23 -53 -56.5 -84t-74.5 -31 q-43 0 -75 15.5t-56.5 34t-44 34t-37.5 15.5q-35 0 -50.5 -25t-25.5 -49zM188 295q0 -115 70 -178.5t186 -63.5q117 0 186.5 62.5t69.5 179.5v416q0 117 -69.5 177t-186.5 60t-186.5 -61.5t-69.5 -175.5v-416z" />
<glyph unicode="&#xf6;" horiz-adv-x="890" d="M113 295v416q0 147 92 230t239 83t239.5 -83t92.5 -230v-416q0 -150 -92 -234t-240 -84q-150 0 -240.5 84t-90.5 234zM188 295q0 -115 70 -178.5t186 -63.5q117 0 186.5 62.5t69.5 179.5v416q0 117 -69.5 177t-186.5 60t-186.5 -61.5t-69.5 -175.5v-416zM241 1141v131 h107v-131h-107zM510 1141v131h102v-131h-102z" />
<glyph unicode="&#xf7;" horiz-adv-x="1169" d="M113 553v76h944v-76h-944zM504 188v164h145v-164h-145zM504 821v166h145v-166h-145z" />
<glyph unicode="&#xf8;" horiz-adv-x="870" d="M53 295v418q0 147 92.5 230t239.5 83q127 0 209 -61l72 147h77l-92 -194q31 -41 49.5 -92.5t18.5 -112.5v-418q0 -150 -93.5 -234t-240.5 -84q-88 0 -166 33l-59 -131h-84l82 174q-49 41 -77 101.5t-28 140.5zM129 295q0 -104 64 -168l370 770q-35 25 -80 39t-98 14 q-115 0 -185.5 -61.5t-70.5 -175.5v-418zM254 80q59 -27 131 -27q117 0 187.5 62.5t70.5 179.5v418q0 76 -29 127z" />
<glyph unicode="&#xf9;" horiz-adv-x="925" d="M174 297v707h76v-707q0 -117 52 -179.5t169 -62.5t171 62.5t54 179.5v707h76v-707q0 -150 -77 -233.5t-224 -83.5q-150 0 -223.5 83.5t-73.5 233.5zM276 1370l74 51l154 -280l-60 -49z" />
<glyph unicode="&#xfa;" horiz-adv-x="925" d="M174 297v707h76v-707q0 -117 52 -179.5t169 -62.5t171 62.5t54 179.5v707h76v-707q0 -150 -77 -233.5t-224 -83.5q-150 0 -223.5 83.5t-73.5 233.5zM387 1147l156 274l70 -53l-168 -268z" />
<glyph unicode="&#xfb;" horiz-adv-x="925" d="M174 297v707h76v-707q0 -117 52 -179.5t169 -62.5t171 62.5t54 179.5v707h76v-707q0 -150 -77 -233.5t-224 -83.5q-150 0 -223.5 83.5t-73.5 233.5zM235 1229l211 168l203 -168l-39 -62l-164 136l-168 -134z" />
<glyph unicode="&#xfc;" horiz-adv-x="925" d="M174 297v707h76v-707q0 -117 52 -179.5t169 -62.5t171 62.5t54 179.5v707h76v-707q0 -150 -77 -233.5t-224 -83.5q-150 0 -223.5 83.5t-73.5 233.5zM258 1180v131h107v-131h-107zM527 1180v131h102v-131h-102z" />
<glyph unicode="&#xfd;" horiz-adv-x="753" d="M20 -379q66 0 113 19.5t82 56.5t59.5 88t42.5 115l17 63l-289 1041h82l254 -912l258 912h84l-332 -1133q-29 -98 -65.5 -161.5t-82.5 -99.5t-101.5 -50.5t-121.5 -14.5v76zM305 1147l156 274l70 -53l-168 -268z" />
<glyph unicode="&#xfe;" horiz-adv-x="962" d="M174 -475v1919h76v-537q31 41 62.5 64.5t65.5 35t70.5 14.5t79.5 3q174 0 248 -85t74 -228v-416q0 -88 -24.5 -148.5t-68.5 -97.5t-102.5 -53t-126.5 -16q-113 0 -172 37.5t-106 103.5v-596h-76zM248 322q0 -68 23.5 -118t62.5 -83t90 -49.5t104 -16.5q133 0 189.5 63.5 t56.5 176.5v416q0 72 -19.5 117.5t-53 72.5t-78.5 37t-95 10q-70 0 -122 -21.5t-86.5 -57t-53 -84t-18.5 -101.5v-362z" />
<glyph unicode="&#xff;" horiz-adv-x="753" d="M20 -379q66 0 113 19.5t82 56.5t59.5 88t42.5 115l17 63l-289 1041h82l254 -912l258 912h84l-332 -1133q-29 -98 -65.5 -161.5t-82.5 -99.5t-101.5 -50.5t-121.5 -14.5v76zM178 1180v131h107v-131h-107zM447 1180v131h102v-131h-102z" />
<glyph unicode="&#x152;" horiz-adv-x="1519" d="M133 401v588q0 102 37 177t96.5 126t136 76t158.5 25h803v-76h-490v-555h412v-76h-412v-610h533v-76h-844q-106 0 -187 31.5t-134.5 86t-81 128t-27.5 155.5zM209 401q4 -92 33.5 -154.5t79 -100t112 -54t129.5 -16.5h236v1241h-238q-74 0 -137.5 -26.5t-111.5 -70.5 t-75.5 -103.5t-27.5 -127.5v-588z" />
<glyph unicode="&#x153;" horiz-adv-x="1452" d="M113 293v426q0 84 27.5 142.5t72.5 97t105.5 56t123.5 17.5q117 0 186.5 -47t110.5 -125q39 78 111 124t170 46q145 0 232 -74.5t87 -236.5v-158l-563 -100v-109q0 -70 26.5 -125t67.5 -94t90.5 -59.5t96.5 -20.5q76 0 138 30t97 69l47 -62q-27 -33 -63.5 -54.5 t-74.5 -34.5t-76 -18.5t-68 -5.5q-117 0 -198 45.5t-122 131.5q-49 -94 -124.5 -135.5t-170.5 -41.5q-164 0 -246.5 90.5t-82.5 225.5zM188 293q0 -66 20.5 -111t56.5 -73.5t82 -42t95 -13.5q61 0 109.5 21.5t81.5 56.5t49 82t16 96v406q0 61 -21.5 106t-57 76t-81.5 45 t-96 14q-127 0 -190.5 -67.5t-63.5 -169.5v-426zM776 537l488 88v94q0 63 -19.5 108t-52.5 74t-75 42t-87 13q-57 0 -103 -20.5t-80 -54t-52.5 -76.5t-18.5 -90v-178z" />
<glyph unicode="&#x178;" horiz-adv-x="1067" d="M51 1393h86l383 -727l389 727h86l-438 -826v-567h-76v567zM329 1487v131h107v-131h-107zM598 1487v131h102v-131h-102z" />
<glyph unicode="&#x2c6;" horiz-adv-x="618" d="M102 1229l211 168l203 -168l-39 -62l-164 136l-168 -134z" />
<glyph unicode="&#x2dc;" horiz-adv-x="686" d="M102 1270q35 68 64 93.5t76 25.5q33 0 62.5 -16.5t57 -35t53 -35t48.5 -16.5q18 4 30.5 22.5t26.5 47.5l64 -37q-23 -53 -56.5 -84t-74.5 -31q-43 0 -75 15.5t-56.5 34t-44 34t-37.5 15.5q-35 0 -50.5 -25t-25.5 -49z" />
<glyph unicode="&#x2000;" horiz-adv-x="927" />
<glyph unicode="&#x2001;" horiz-adv-x="1855" />
<glyph unicode="&#x2002;" horiz-adv-x="927" />
<glyph unicode="&#x2003;" horiz-adv-x="1855" />
<glyph unicode="&#x2004;" horiz-adv-x="618" />
<glyph unicode="&#x2005;" horiz-adv-x="463" />
<glyph unicode="&#x2006;" horiz-adv-x="309" />
<glyph unicode="&#x2007;" horiz-adv-x="309" />
<glyph unicode="&#x2008;" horiz-adv-x="231" />
<glyph unicode="&#x2009;" horiz-adv-x="371" />
<glyph unicode="&#x200a;" horiz-adv-x="103" />
<glyph unicode="&#x2010;" horiz-adv-x="583" d="M113 532v76h358v-76h-358z" />
<glyph unicode="&#x2011;" horiz-adv-x="583" d="M113 532v76h358v-76h-358z" />
<glyph unicode="&#x2012;" horiz-adv-x="583" d="M113 532v76h358v-76h-358z" />
<glyph unicode="&#x2013;" horiz-adv-x="919" d="M6 553v76h897v-76h-897z" />
<glyph unicode="&#x2014;" horiz-adv-x="1273" d="M8 553v76h1256v-76h-1256z" />
<glyph unicode="&#x2018;" horiz-adv-x="217" d="M61 1028v57q0 61 4.5 109.5t13.5 87.5t25.5 70.5t40.5 60.5l52 -35q-39 -53 -46.5 -109.5t-7.5 -127.5v-113h-82z" />
<glyph unicode="&#x2019;" horiz-adv-x="217" d="M2 1048q18 27 32.5 50.5t24 51t13.5 60.5t4 76v108h82v-53q0 -70 -7.5 -119t-20.5 -86t-32.5 -65.5t-44.5 -57.5z" />
<glyph unicode="&#x201a;" horiz-adv-x="428" d="M178 -203q18 27 32.5 50.5t24 51t13.5 60.5t4 76v108h82v-53q0 -70 -7.5 -119t-20.5 -86t-32.5 -65.5t-44.5 -57.5z" />
<glyph unicode="&#x201c;" horiz-adv-x="452" d="M61 1028v57q0 61 4.5 109.5t13.5 87.5t25.5 70.5t40.5 60.5l52 -35q-39 -53 -46.5 -109.5t-7.5 -127.5v-113h-82zM290 1028v57q0 61 4.5 109.5t13.5 87.5t25.5 70.5t40.5 60.5l52 -35q-39 -53 -46.5 -109.5t-7.5 -127.5v-113h-82z" />
<glyph unicode="&#x201d;" horiz-adv-x="411" d="M2 1044q18 27 32.5 50.5t24 51t13.5 60.5t4 76v108h82v-53q0 -70 -7.5 -119t-20.5 -86t-32.5 -65.5t-44.5 -57.5zM194 1044q18 27 32.5 50.5t24 51t13.5 60.5t4 76v108h82v-53q0 -70 -7.5 -119t-20.5 -86t-32.5 -65.5t-44.5 -57.5z" />
<glyph unicode="&#x201e;" horiz-adv-x="759" d="M178 -201q18 27 32.5 50.5t24 51t13.5 60.5t4 76v108h82v-53q0 -70 -7.5 -119t-20.5 -86t-32.5 -65.5t-44.5 -57.5zM510 -199q18 27 32.5 50.5t24 51t13.5 60.5t4 76v108h82v-53q0 -70 -7.5 -119t-20.5 -86t-32.5 -65.5t-44.5 -57.5z" />
<glyph unicode="&#x2022;" horiz-adv-x="628" d="M174 348v334h281v-334h-281z" />
<glyph unicode="&#x2026;" horiz-adv-x="1224" d="M174 0v178h133v-178h-133zM545 0v178h135v-178h-135zM915 0v178h136v-178h-136z" />
<glyph unicode="&#x202f;" horiz-adv-x="371" />
<glyph unicode="&#x2039;" horiz-adv-x="538" d="M113 340l241 348l72 -47l-203 -299l203 -295l-70 -47z" />
<glyph unicode="&#x203a;" horiz-adv-x="538" d="M113 47l204 287l-204 307l73 47l240 -348l-244 -340z" />
<glyph unicode="&#x205f;" horiz-adv-x="463" />
<glyph unicode="&#x20ac;" horiz-adv-x="1118" d="M96 543v75h254v228h-254v76h254v168q0 186 91 275t270 89q86 0 155.5 -36t132.5 -99l-51 -64q-53 55 -109 89t-128 34q-143 0 -214 -69.5t-71 -218.5v-168h412v-76h-412v-228h412v-75h-412v-189q0 -289 285 -288q72 0 129 28.5t116 85.5l54 -63q-66 -68 -139.5 -97.5 t-159.5 -29.5q-178 0 -269.5 87t-91.5 277v189h-254z" />
<glyph unicode="&#x2122;" horiz-adv-x="962" d="M88 1368v66h315v-66h-124v-364h-68v364h-123zM459 1004v430h61l111 -205l102 205h66v-430h-68v276l-74 -156h-51l-80 162v-282h-67z" />
<glyph unicode="&#xe000;" horiz-adv-x="1003" d="M0 0v1004h1004v-1004h-1004z" />
<glyph unicode="&#xfb03;" horiz-adv-x="1306" d="M-35 926v75h176v191q0 141 70.5 216t181.5 75q86 0 157 -33t126 -64q8 12 26.5 32t47 37.5t65.5 29.5t80 12q41 0 88 -17.5t88 -39.5q47 -25 92 -60l-37 -67q-41 33 -82 55q-35 20 -74.5 36.5t-74.5 16.5q-96 0 -143 -64.5t-47 -150.5v-202h194v-76h-194v-928h-76v928 h-176v76h176v202q0 59 18 105q-66 47 -133.5 71.5t-120.5 24.5q-51 0 -85 -18.5t-54.5 -48t-28.5 -68.5t-8 -80v-191h148v-75h-148v-926h-76v926h-176zM1079 0v1004h76v-1004h-76z" />
<glyph unicode="&#xfb04;" horiz-adv-x="1359" d="M0 926v75h176v191q0 141 71.5 216t184.5 75q59 0 126 -28t122 -60q41 53 96 77.5t117 24.5q33 0 68.5 -7t70.5 -17.5t66.5 -24.5t52.5 -27h25v-1421h-78v1362q-53 29 -110.5 44t-94.5 15q-104 0 -149.5 -58t-45.5 -157v-202h199v-76h-199v-928h-75v928h-148v76h148v202 q0 41 5 66.5t15 52.5q-59 41 -116.5 61.5t-94.5 20.5q-53 0 -88 -18.5t-55.5 -48t-28.5 -68.5t-8 -80v-191h149v-75h-149v-926h-76v926h-176z" />
</font>
</defs>
</svg>
